<svg xmlns="http://www.w3.org/2000/svg" width="31" height="31" viewBox="0 0 31 31">
  <g transform="translate(-7228 -5911)">
    <rect width="31" height="31" rx="4" transform="translate(7228 5911)" fill="#f95e5f"/>
    <g transform="translate(7234 5918.005)">
      <g transform="translate(0 -0.006)">
        <path d="M0,3.9V2.912A.6.6,0,0,0,.074,2.84Q1.258,1.454,2.435.066A.16.16,0,0,1,2.6,0a.175.175,0,0,0,.033,0H17.39a.566.566,0,0,0,.059,0,.123.123,0,0,1,.118.053q1.19,1.4,2.383,2.8A.185.185,0,0,1,20,2.98q0,.389,0,.774a1.665,1.665,0,0,1-.009.234A1.588,1.588,0,0,1,19.2,5.167a2.5,2.5,0,0,1-2.256.1,1.62,1.62,0,0,1-.97-1.2l-.026-.152a1.184,1.184,0,0,0-.031.148,1.562,1.562,0,0,1-.826,1.154,2.238,2.238,0,0,1-1.908.131A1.615,1.615,0,0,1,12.07,4.081c-.011-.057-.02-.115-.028-.172-.017.066-.026.131-.039.2a1.59,1.59,0,0,1-.944,1.152,2.434,2.434,0,0,1-1.99.039A1.621,1.621,0,0,1,8,4.064c-.011-.051-.017-.1-.026-.154a1.359,1.359,0,0,0-.031.148,1.557,1.557,0,0,1-.752,1.107,2.207,2.207,0,0,1-1.827.226A1.642,1.642,0,0,1,4.09,3.984l-.007-.039A.237.237,0,0,0,4.07,3.9v.027a1.549,1.549,0,0,1-.822,1.248,2.409,2.409,0,0,1-2.225.092,1.578,1.578,0,0,1-1-1.283A.533.533,0,0,0,0,3.9Z" transform="translate(0 0.006)" fill="#fff"/>
        <path d="M89.506,262.394H72.5V251.805a.193.193,0,0,1,.009-.049c.064.008.124.021.181.025a3.718,3.718,0,0,0,.623-.012,2.326,2.326,0,0,0,1.616-.817.556.556,0,0,1,.049-.051l.027.016c.022.023.044.047.064.072a2.131,2.131,0,0,0,.871.649,2.893,2.893,0,0,0,2.014.023,2.012,2.012,0,0,0,.975-.68.5.5,0,0,1,.04-.043c.027.031.051.057.073.084a2.1,2.1,0,0,0,.8.591,2.968,2.968,0,0,0,1.541.191,2.49,2.49,0,0,0,1.647-.852c.013-.016.029-.029.046-.047l.111.123a2.048,2.048,0,0,0,.8.573,2.9,2.9,0,0,0,1.8.094,2.125,2.125,0,0,0,1.2-.749.5.5,0,0,1,.04-.041l.064.072a2.16,2.16,0,0,0,.621.509,3,3,0,0,0,1.627.3.994.994,0,0,0,.164-.025V262.3a.469.469,0,0,0,0,.094Zm-6.639-8.735h-3.65a.119.119,0,0,1-.122-.072,3.008,3.008,0,0,0-.363-.544,1.347,1.347,0,0,0-.67-.454,2.674,2.674,0,0,0-.4-.08,2.4,2.4,0,0,0-.82.031,3.758,3.758,0,0,0-1.521.727,2.451,2.451,0,0,0-.9,1.324c-.391,1.466-.8,2.93-1.209,4.392a1.965,1.965,0,0,0-.055.9A1.423,1.423,0,0,0,74.114,261a2.289,2.289,0,0,0,1.468.033,2.91,2.91,0,0,0,1.212-.712,4.153,4.153,0,0,0,.834-1.142.122.122,0,0,1,.128-.074H84.3a.122.122,0,0,1,.128.074,4.247,4.247,0,0,0,.57.848,3.356,3.356,0,0,0,1.079.848,2.4,2.4,0,0,0,1.623.2,1.471,1.471,0,0,0,1.165-1.051,1.723,1.723,0,0,0,0-.953c-.25-.92-.506-1.838-.761-2.755-.164-.591-.332-1.181-.486-1.772a2.148,2.148,0,0,0-.473-.889,3.511,3.511,0,0,0-1.17-.854,3.09,3.09,0,0,0-.9-.283,3.687,3.687,0,0,0-1.247.051,1.052,1.052,0,0,0-.825.667,3.019,3.019,0,0,0-.1.314.724.724,0,0,0-.032.107Z" transform="translate(-71.011 -244.674)" fill="#fff"/>
        <path d="M322.762,410.492v-1.464H321.6a1.619,1.619,0,0,1,.152-.17c.051-.055.1-.111.156-.164l.15-.16c.051-.055.1-.109.156-.164l.15-.16c.051-.055.1-.109.156-.164l.15-.16c.051-.055.1-.109.156-.164s.1-.107.15-.158l.15-.16c.051-.055.1-.109.156-.164l.15-.16c.051-.055.1-.109.156-.164l.15-.16c.051-.055.1-.109.156-.164l.15-.16c.051-.055.1-.111.156-.164s.1-.1.158-.164l2.8,2.957c-.088.01-.162,0-.236.006h-.928v1.421c-.006.008-.006.01-.008.01h-.006c-.018,0-.037.006-.053.006H322.79l-.028-.012Z" transform="translate(-314.391 -397.03)" fill="#fff"/>
      </g>
    </g>
  </g>
</svg>
